<mxfile host="app.diagrams.net" modified="2023-12-26T16:01:30.982Z" agent="Mozilla/5.0 (Windows NT 10.0; Win64; x64) AppleWebKit/537.36 (KHTML, like Gecko) Chrome/120.0.0.0 Safari/537.36" etag="oMAP_Sin8NQ8BxEBMjm7" version="22.1.11" type="device">
  <diagram name="Страница — 1" id="FXrzRUmyPskRK_JKff3u">
    <mxGraphModel dx="976" dy="605" grid="1" gridSize="10" guides="1" tooltips="1" connect="1" arrows="1" fold="1" page="1" pageScale="1" pageWidth="827" pageHeight="1169" math="0" shadow="0">
      <root>
        <mxCell id="0" />
        <mxCell id="1" parent="0" />
        <mxCell id="fgAslP-qHTUkV6l5np22-1" value="Пользователь" style="shape=umlActor;verticalLabelPosition=bottom;verticalAlign=top;html=1;outlineConnect=0;" parent="1" vertex="1">
          <mxGeometry x="110" y="280" width="30" height="60" as="geometry" />
        </mxCell>
        <mxCell id="fgAslP-qHTUkV6l5np22-2" value="Выбрать файл для обучения" style="ellipse;whiteSpace=wrap;html=1;" parent="1" vertex="1">
          <mxGeometry x="200" y="190" width="120" height="80" as="geometry" />
        </mxCell>
        <mxCell id="fgAslP-qHTUkV6l5np22-3" value="Работа со сценами" style="ellipse;whiteSpace=wrap;html=1;" parent="1" vertex="1">
          <mxGeometry x="200" y="330" width="120" height="80" as="geometry" />
        </mxCell>
        <mxCell id="fgAslP-qHTUkV6l5np22-4" value="Добавить сцену" style="ellipse;whiteSpace=wrap;html=1;" parent="1" vertex="1">
          <mxGeometry x="370" y="400" width="120" height="80" as="geometry" />
        </mxCell>
        <mxCell id="fgAslP-qHTUkV6l5np22-5" value="Изменить сцену" style="ellipse;whiteSpace=wrap;html=1;" parent="1" vertex="1">
          <mxGeometry x="550" y="200" width="120" height="80" as="geometry" />
        </mxCell>
        <mxCell id="fgAslP-qHTUkV6l5np22-6" value="Выбрать сцену" style="ellipse;whiteSpace=wrap;html=1;" parent="1" vertex="1">
          <mxGeometry x="370" y="260" width="120" height="80" as="geometry" />
        </mxCell>
        <mxCell id="fgAslP-qHTUkV6l5np22-7" value="Вывести информацию о сцене" style="ellipse;whiteSpace=wrap;html=1;" parent="1" vertex="1">
          <mxGeometry x="550" y="330" width="120" height="80" as="geometry" />
        </mxCell>
        <mxCell id="fgAslP-qHTUkV6l5np22-8" value="Изменить шаблон вопроса" style="ellipse;whiteSpace=wrap;html=1;" parent="1" vertex="1">
          <mxGeometry x="790" y="130" width="120" height="80" as="geometry" />
        </mxCell>
        <mxCell id="fgAslP-qHTUkV6l5np22-9" value="Изменить шаблон ответа" style="ellipse;whiteSpace=wrap;html=1;" parent="1" vertex="1">
          <mxGeometry x="790" y="230" width="120" height="80" as="geometry" />
        </mxCell>
        <mxCell id="fgAslP-qHTUkV6l5np22-10" value="Изменить шаблон уточняющего вопроса" style="ellipse;whiteSpace=wrap;html=1;" parent="1" vertex="1">
          <mxGeometry x="790" y="330" width="120" height="80" as="geometry" />
        </mxCell>
        <mxCell id="fgAslP-qHTUkV6l5np22-11" value="Добавить шаблон вопроса" style="ellipse;whiteSpace=wrap;html=1;" parent="1" vertex="1">
          <mxGeometry x="790" y="30" width="120" height="80" as="geometry" />
        </mxCell>
        <mxCell id="fgAslP-qHTUkV6l5np22-13" value="" style="endArrow=none;html=1;rounded=0;entryX=0;entryY=0.5;entryDx=0;entryDy=0;edgeStyle=orthogonalEdgeStyle;" parent="1" source="fgAslP-qHTUkV6l5np22-1" target="fgAslP-qHTUkV6l5np22-2" edge="1">
          <mxGeometry width="50" height="50" relative="1" as="geometry">
            <mxPoint x="540" y="340" as="sourcePoint" />
            <mxPoint x="590" y="290" as="targetPoint" />
          </mxGeometry>
        </mxCell>
        <mxCell id="fgAslP-qHTUkV6l5np22-14" value="" style="endArrow=none;html=1;rounded=0;entryX=0;entryY=0.5;entryDx=0;entryDy=0;edgeStyle=orthogonalEdgeStyle;" parent="1" source="fgAslP-qHTUkV6l5np22-1" target="fgAslP-qHTUkV6l5np22-3" edge="1">
          <mxGeometry width="50" height="50" relative="1" as="geometry">
            <mxPoint x="540" y="340" as="sourcePoint" />
            <mxPoint x="590" y="290" as="targetPoint" />
          </mxGeometry>
        </mxCell>
        <mxCell id="fgAslP-qHTUkV6l5np22-15" value="" style="endArrow=classic;html=1;rounded=0;exitX=1;exitY=0.5;exitDx=0;exitDy=0;entryX=0;entryY=0.5;entryDx=0;entryDy=0;dashed=1;" parent="1" source="fgAslP-qHTUkV6l5np22-3" target="fgAslP-qHTUkV6l5np22-6" edge="1">
          <mxGeometry width="50" height="50" relative="1" as="geometry">
            <mxPoint x="540" y="340" as="sourcePoint" />
            <mxPoint x="590" y="290" as="targetPoint" />
          </mxGeometry>
        </mxCell>
        <mxCell id="fgAslP-qHTUkV6l5np22-30" value="include" style="edgeLabel;html=1;align=center;verticalAlign=middle;resizable=0;points=[];" parent="fgAslP-qHTUkV6l5np22-15" vertex="1" connectable="0">
          <mxGeometry x="-0.0617" y="1" relative="1" as="geometry">
            <mxPoint as="offset" />
          </mxGeometry>
        </mxCell>
        <mxCell id="fgAslP-qHTUkV6l5np22-16" value="" style="endArrow=none;html=1;rounded=0;exitX=1;exitY=0.5;exitDx=0;exitDy=0;entryX=0;entryY=0.5;entryDx=0;entryDy=0;dashed=1;startArrow=classic;startFill=1;endFill=0;" parent="1" source="fgAslP-qHTUkV6l5np22-3" target="fgAslP-qHTUkV6l5np22-4" edge="1">
          <mxGeometry width="50" height="50" relative="1" as="geometry">
            <mxPoint x="540" y="340" as="sourcePoint" />
            <mxPoint x="590" y="290" as="targetPoint" />
          </mxGeometry>
        </mxCell>
        <mxCell id="fgAslP-qHTUkV6l5np22-31" value="extend" style="edgeLabel;html=1;align=center;verticalAlign=middle;resizable=0;points=[];" parent="fgAslP-qHTUkV6l5np22-16" vertex="1" connectable="0">
          <mxGeometry x="-0.0083" y="-2" relative="1" as="geometry">
            <mxPoint as="offset" />
          </mxGeometry>
        </mxCell>
        <mxCell id="fgAslP-qHTUkV6l5np22-17" value="" style="endArrow=none;html=1;rounded=0;exitX=1;exitY=0.5;exitDx=0;exitDy=0;entryX=0;entryY=0.5;entryDx=0;entryDy=0;dashed=1;startArrow=classic;startFill=1;endFill=0;" parent="1" source="fgAslP-qHTUkV6l5np22-6" target="fgAslP-qHTUkV6l5np22-5" edge="1">
          <mxGeometry width="50" height="50" relative="1" as="geometry">
            <mxPoint x="540" y="340" as="sourcePoint" />
            <mxPoint x="590" y="290" as="targetPoint" />
          </mxGeometry>
        </mxCell>
        <mxCell id="fgAslP-qHTUkV6l5np22-32" value="extend" style="edgeLabel;html=1;align=center;verticalAlign=middle;resizable=0;points=[];" parent="fgAslP-qHTUkV6l5np22-17" vertex="1" connectable="0">
          <mxGeometry x="0.0922" relative="1" as="geometry">
            <mxPoint as="offset" />
          </mxGeometry>
        </mxCell>
        <mxCell id="fgAslP-qHTUkV6l5np22-18" value="" style="endArrow=classic;html=1;rounded=0;exitX=1;exitY=0.5;exitDx=0;exitDy=0;entryX=0;entryY=0.5;entryDx=0;entryDy=0;dashed=1;" parent="1" source="fgAslP-qHTUkV6l5np22-6" target="fgAslP-qHTUkV6l5np22-7" edge="1">
          <mxGeometry width="50" height="50" relative="1" as="geometry">
            <mxPoint x="540" y="340" as="sourcePoint" />
            <mxPoint x="590" y="290" as="targetPoint" />
          </mxGeometry>
        </mxCell>
        <mxCell id="fgAslP-qHTUkV6l5np22-33" value="include" style="edgeLabel;html=1;align=center;verticalAlign=middle;resizable=0;points=[];" parent="fgAslP-qHTUkV6l5np22-18" vertex="1" connectable="0">
          <mxGeometry x="-0.1867" y="2" relative="1" as="geometry">
            <mxPoint as="offset" />
          </mxGeometry>
        </mxCell>
        <mxCell id="fgAslP-qHTUkV6l5np22-19" value="" style="endArrow=none;html=1;rounded=0;exitX=1;exitY=0.5;exitDx=0;exitDy=0;entryX=0;entryY=0.5;entryDx=0;entryDy=0;dashed=1;startArrow=classic;startFill=1;endFill=0;" parent="1" source="fgAslP-qHTUkV6l5np22-5" target="fgAslP-qHTUkV6l5np22-11" edge="1">
          <mxGeometry width="50" height="50" relative="1" as="geometry">
            <mxPoint x="540" y="340" as="sourcePoint" />
            <mxPoint x="590" y="290" as="targetPoint" />
          </mxGeometry>
        </mxCell>
        <mxCell id="fgAslP-qHTUkV6l5np22-34" value="extend" style="edgeLabel;html=1;align=center;verticalAlign=middle;resizable=0;points=[];" parent="fgAslP-qHTUkV6l5np22-19" vertex="1" connectable="0">
          <mxGeometry x="0.1702" y="3" relative="1" as="geometry">
            <mxPoint x="3" y="1" as="offset" />
          </mxGeometry>
        </mxCell>
        <mxCell id="fgAslP-qHTUkV6l5np22-20" value="" style="endArrow=classic;html=1;rounded=0;exitX=1;exitY=0.5;exitDx=0;exitDy=0;entryX=0;entryY=0.5;entryDx=0;entryDy=0;dashed=1;" parent="1" source="fgAslP-qHTUkV6l5np22-5" target="fgAslP-qHTUkV6l5np22-8" edge="1">
          <mxGeometry width="50" height="50" relative="1" as="geometry">
            <mxPoint x="540" y="340" as="sourcePoint" />
            <mxPoint x="590" y="290" as="targetPoint" />
          </mxGeometry>
        </mxCell>
        <mxCell id="fgAslP-qHTUkV6l5np22-35" value="include" style="edgeLabel;html=1;align=center;verticalAlign=middle;resizable=0;points=[];" parent="fgAslP-qHTUkV6l5np22-20" vertex="1" connectable="0">
          <mxGeometry x="0.2196" y="1" relative="1" as="geometry">
            <mxPoint x="-3" y="14" as="offset" />
          </mxGeometry>
        </mxCell>
        <mxCell id="fgAslP-qHTUkV6l5np22-21" value="" style="endArrow=classic;html=1;rounded=0;exitX=1;exitY=0.5;exitDx=0;exitDy=0;entryX=0;entryY=0.5;entryDx=0;entryDy=0;dashed=1;" parent="1" source="fgAslP-qHTUkV6l5np22-5" target="fgAslP-qHTUkV6l5np22-9" edge="1">
          <mxGeometry width="50" height="50" relative="1" as="geometry">
            <mxPoint x="540" y="340" as="sourcePoint" />
            <mxPoint x="590" y="290" as="targetPoint" />
          </mxGeometry>
        </mxCell>
        <mxCell id="fgAslP-qHTUkV6l5np22-36" value="include" style="edgeLabel;html=1;align=center;verticalAlign=middle;resizable=0;points=[];" parent="fgAslP-qHTUkV6l5np22-21" vertex="1" connectable="0">
          <mxGeometry x="0.0095" y="-3" relative="1" as="geometry">
            <mxPoint x="10" y="2" as="offset" />
          </mxGeometry>
        </mxCell>
        <mxCell id="fgAslP-qHTUkV6l5np22-22" value="" style="endArrow=classic;html=1;rounded=0;exitX=1;exitY=0.5;exitDx=0;exitDy=0;entryX=0;entryY=0.5;entryDx=0;entryDy=0;dashed=1;" parent="1" source="fgAslP-qHTUkV6l5np22-5" target="fgAslP-qHTUkV6l5np22-10" edge="1">
          <mxGeometry width="50" height="50" relative="1" as="geometry">
            <mxPoint x="540" y="340" as="sourcePoint" />
            <mxPoint x="590" y="290" as="targetPoint" />
          </mxGeometry>
        </mxCell>
        <mxCell id="fgAslP-qHTUkV6l5np22-37" value="include" style="edgeLabel;html=1;align=center;verticalAlign=middle;resizable=0;points=[];" parent="fgAslP-qHTUkV6l5np22-22" vertex="1" connectable="0">
          <mxGeometry x="-0.0563" y="-4" relative="1" as="geometry">
            <mxPoint x="16" y="6" as="offset" />
          </mxGeometry>
        </mxCell>
        <mxCell id="PCdT2Hh4muCxtC6i-dE2-1" value="Удалить сцену" style="ellipse;whiteSpace=wrap;html=1;" vertex="1" parent="1">
          <mxGeometry x="790" y="430" width="120" height="80" as="geometry" />
        </mxCell>
        <mxCell id="PCdT2Hh4muCxtC6i-dE2-2" value="" style="endArrow=classic;html=1;rounded=0;exitX=0;exitY=0.5;exitDx=0;exitDy=0;entryX=1;entryY=0.5;entryDx=0;entryDy=0;dashed=1;" edge="1" parent="1" source="PCdT2Hh4muCxtC6i-dE2-1" target="fgAslP-qHTUkV6l5np22-5">
          <mxGeometry width="50" height="50" relative="1" as="geometry">
            <mxPoint x="690" y="340" as="sourcePoint" />
            <mxPoint x="740" y="290" as="targetPoint" />
          </mxGeometry>
        </mxCell>
        <mxCell id="PCdT2Hh4muCxtC6i-dE2-3" value="extend" style="edgeLabel;html=1;align=center;verticalAlign=middle;resizable=0;points=[];" vertex="1" connectable="0" parent="PCdT2Hh4muCxtC6i-dE2-2">
          <mxGeometry x="-0.1735" y="2" relative="1" as="geometry">
            <mxPoint as="offset" />
          </mxGeometry>
        </mxCell>
      </root>
    </mxGraphModel>
  </diagram>
</mxfile>
